# Blender v2.79 (sub 0) OBJ File: 'logo3d.blend'
# www.blender.org
mtllib logo.mtl
o Plane
v -1.150694 -0.870000 0.250000
v 2.010000 -0.870000 0.250000
v -0.713101 0.870000 0.250000
v 2.010000 0.870000 0.250000
v -1.150694 -0.870000 -0.250000
v 2.010000 -0.870000 -0.250000
v -0.713101 0.870000 -0.250000
v 2.010000 0.870000 -0.250000
v -0.740280 0.761929 0.250000
v 2.010000 0.761929 0.250000
v -0.740280 0.761929 -0.250000
v 2.010000 0.761929 -0.250000
v -1.084025 -0.604907 0.250000
v -1.084025 -0.604907 -0.250000
v 2.010000 -0.604907 0.250000
v 2.010000 -0.604907 -0.250000
v 1.956879 -0.870000 0.250000
v 1.964234 0.870000 0.250000
v 1.956879 -0.870000 -0.250000
v 1.964234 0.870000 -0.250000
v 1.963777 0.761929 -0.250000
v 1.963777 0.761929 0.250000
v 1.958000 -0.604907 0.250000
v 1.958000 -0.604907 -0.250000
v -0.678922 0.870000 0.250000
v -0.678922 0.870000 -0.250000
v -0.705760 0.761929 -0.250000
v -1.045191 -0.604907 -0.250000
v -1.111023 -0.870000 0.250000
v -1.111023 -0.870000 -0.250000
v -0.705760 0.761929 0.250000
v -1.045191 -0.604907 0.250000
v 1.027179 -0.870000 0.250000
v 1.027179 -0.870000 -0.250000
v 1.027179 0.761929 0.250000
v 1.027179 -0.604907 0.250000
v 1.027179 0.870000 0.250000
v 1.027179 0.870000 -0.250000
v 1.027179 0.761929 -0.250000
v 1.027179 -0.604907 -0.250000
v 0.054950 0.870000 0.250000
v 0.054950 0.870000 -0.250000
v 0.054950 0.761929 -0.250000
v 0.054950 -0.604907 -0.250000
v 0.054950 -0.870000 0.250000
v 0.054950 -0.870000 -0.250000
v 0.054950 0.761929 0.250000
v 0.054950 -0.604907 0.250000
v 1.995589 -0.828050 0.214612
v 1.995589 0.828050 0.214612
v 1.995589 -0.828050 -0.214612
v 1.995589 0.828050 -0.214612
v 1.995589 0.725190 0.214612
v 1.995589 0.725190 -0.214612
v 1.995589 -0.575739 0.214612
v 1.995589 -0.575739 -0.214612
v -1.937562 -0.575739 -0.214612
v -1.937562 -0.575739 0.214612
v -1.937562 0.725190 -0.214612
v -1.937562 0.725190 0.214612
v -1.937562 0.828050 -0.214612
v -1.937562 -0.828050 -0.214612
v -1.937562 0.828050 0.214612
v -1.937562 -0.828050 0.214612
v -1.999389 -0.639761 0.300000
v 2.060142 -0.639761 0.300000
v -1.999389 -0.639761 -0.300000
v 2.060142 -0.639761 -0.300000
v -1.999389 -0.679761 0.300000
v 2.060142 -0.679761 0.300000
v -1.999389 -0.679761 -0.300000
v 2.060142 -0.679761 -0.300000
vt 0.984902 0.942661
vt 0.996240 0.942661
vt 0.996240 0.970930
vt 0.985015 0.970930
vt 0.984902 0.942661
vt 0.985015 0.970930
vt 0.996240 0.970930
vt 0.996240 0.942661
vt 0.237379 0.174205
vt 0.237379 0.174205
vt 0.313504 0.151519
vt 0.313504 0.151519
vt 0.336737 0.970930
vt 0.336737 0.970930
vt 0.328354 0.970930
vt 0.328354 0.970930
vt 0.893842 0.151519
vt 0.893842 0.151519
vt 0.903762 0.151519
vt 0.903762 0.151519
vt 0.321688 0.942661
vt 0.321688 0.942661
vt 0.996240 0.174205
vt 0.996240 0.174205
vt 0.983486 0.174205
vt 0.983486 0.174205
vt 0.720221 0.151519
vt 0.755186 0.174205
vt 0.720221 0.151519
vt 0.755186 0.174205
vt 0.755186 0.942661
vt 0.755186 0.942661
vt 0.755186 0.970930
vt 0.755186 0.970930
vt 0.330155 0.942661
vt 0.330155 0.942661
vt 0.320913 0.151519
vt 0.320913 0.151519
vt 0.246903 0.174205
vt 0.246903 0.174205
vt 0.516731 0.970930
vt 0.516731 0.970930
vt 0.516731 0.942661
vt 0.516731 0.942661
vt 0.538658 0.151519
vt 0.538658 0.151519
vt 0.755186 0.174205
vt 0.755186 0.942661
vt 0.516731 0.942661
vt 0.516731 0.174205
vt 0.516731 0.174205
vt 0.516731 0.174205
vt 0.112633 0.890892
vt 0.112633 0.890892
vt 0.112633 0.905392
vt 0.112633 0.905392
vt 0.112633 0.707496
vt 0.112633 0.707496
vt 0.057660 0.707496
vt 0.057660 0.890892
vt 0.112633 0.671927
vt 0.112633 0.671927
vt 0.057660 0.671927
vt 0.057660 0.707496
vt 0.057660 0.671927
vt 0.057660 0.890892
vt 0.057660 0.905392
vt 0.057660 0.905392
vt 0.085694 0.128941
vt 0.097867 0.128941
vt 0.097867 0.128941
vt 0.085694 0.128941
vt 0.085694 0.121688
vt 0.085694 0.121688
vt 0.097867 0.121688
vt 0.097867 0.121688
vn 0.0000 0.0000 1.0000
vn 0.0000 0.0000 -1.0000
vn 1.0000 0.0000 0.0000
vn -0.9698 0.2439 0.0000
vn 0.0000 1.0000 0.0000
vn 0.0000 -1.0000 0.0000
vn -1.0000 0.0000 0.0000
usemtl Bck
s off
f 22/1/1 10/2/1 4/3/1 18/4/1
f 21/5/2 20/6/2 8/7/2 12/8/2
f 10/2/3 12/8/3 8/7/3 4/3/3
f 13/9/4 14/10/4 5/11/4 1/12/4
f 25/13/5 26/14/5 7/15/5 3/16/5
f 17/17/6 19/18/6 6/19/6 2/20/6
f 3/16/4 7/15/4 11/21/4 9/22/4
f 15/23/3 16/24/3 12/8/3 10/2/3
f 24/25/2 21/5/2 12/8/2 16/24/2
f 23/26/1 15/23/1 10/2/1 22/1/1
f 17/17/1 2/20/1 15/23/1 23/26/1
f 19/18/2 24/25/2 16/24/2 6/19/2
f 2/20/3 6/19/3 16/24/3 15/23/3
f 9/22/4 11/21/4 14/10/4 13/9/4
f 34/27/2 40/28/2 24/25/2 19/18/2
f 33/29/1 17/17/1 23/26/1 36/30/1
f 36/30/1 23/26/1 22/1/1 35/31/1
f 40/28/2 39/32/2 21/5/2 24/25/2
f 33/29/6 34/27/6 19/18/6 17/17/6
f 4/3/5 8/7/5 20/6/5 18/4/5
f 39/32/2 38/33/2 20/6/2 21/5/2
f 35/31/1 22/1/1 18/4/1 37/34/1
f 9/22/1 31/35/1 25/13/1 3/16/1
f 11/21/2 7/15/2 26/14/2 27/36/2
f 1/12/6 5/11/6 30/37/6 29/38/6
f 14/10/2 11/21/2 27/36/2 28/39/2
f 13/9/1 32/40/1 31/35/1 9/22/1
f 1/12/1 29/38/1 32/40/1 13/9/1
f 5/11/2 14/10/2 28/39/2 30/37/2
f 41/41/5 42/42/5 26/14/5 25/13/5
f 18/4/5 20/6/5 38/33/5 37/34/5
f 47/43/1 35/31/1 37/34/1 41/41/1
f 43/44/2 42/42/2 38/33/2 39/32/2
f 45/45/6 46/46/6 34/27/6 33/29/6
f 44/47/2 43/48/2 39/49/2 40/50/2
f 48/51/1 36/30/1 35/31/1 47/43/1
f 45/45/1 33/29/1 36/30/1 48/51/1
f 46/46/2 44/52/2 40/28/2 34/27/2
f 30/37/2 28/39/2 44/52/2 46/46/2
f 29/38/1 45/45/1 48/51/1 32/40/1
f 32/40/1 48/51/1 47/43/1 31/35/1
f 28/39/2 27/36/2 43/44/2 44/52/2
f 29/38/6 30/37/6 46/46/6 45/45/6
f 27/36/2 26/14/2 42/42/2 43/44/2
f 31/35/1 47/43/1 41/41/1 25/13/1
f 37/34/5 38/33/5 42/42/5 41/41/5
f 53/53/3 54/54/3 52/55/3 50/56/3
f 55/57/3 56/58/3 54/54/3 53/53/3
f 54/54/2 56/58/2 57/59/2 59/60/2
f 49/61/3 51/62/3 56/58/3 55/57/3
f 64/63/7 58/64/7 57/59/7 62/65/7
f 51/62/6 49/61/6 64/63/6 62/65/6
f 60/66/7 63/67/7 61/68/7 59/60/7
f 58/64/7 60/66/7 59/60/7 57/59/7
f 52/55/2 54/54/2 59/60/2 61/68/2
f 56/58/2 51/62/2 62/65/2 57/59/2
f 55/57/1 53/53/1 60/66/1 58/64/1
f 50/56/5 52/55/5 61/68/5 63/67/5
f 53/53/1 50/56/1 63/67/1 60/66/1
f 49/61/1 55/57/1 58/64/1 64/63/1
f 65/69/5 66/70/5 68/71/5 67/72/5
f 69/73/6 71/74/6 72/75/6 70/76/6
f 68/71/2 72/75/2 71/74/2 67/72/2
f 65/69/1 69/73/1 70/76/1 66/70/1
f 66/70/3 70/76/3 72/75/3 68/71/3
f 67/72/7 71/74/7 69/73/7 65/69/7
